{"title":"UFC 195 Official Weigh-Ins 720p WEB-DL x264 - TX -={SPARROW}=-","uid":13121945,"size":619246606,"categoryP":"video","categoryS":"hd___tv_shows","magnet":"?xt=urn:btih:0c6fb81993b359c601adc225eaa46801d082007c&amp;dn=UFC+195+Official+Weigh-Ins+720p+WEB-DL+x264+-+TX+-%3D%7BSPARROW%7D%3D-&amp;tr=udp%3A%2F%2Ftracker.leechers-paradise.org%3A6969&amp;tr=udp%3A%2F%2Fzer0day.ch%3A1337&amp;tr=udp%3A%2F%2Fopen.demonii.com%3A1337&amp;tr=udp%3A%2F%2Ftracker.coppersurfer.tk%3A6969&amp;tr=udp%3A%2F%2Fexodus.desync.com%3A6969","seeders":1,"leechers":0,"uploader":"CenaCme","files":2,"time":1451721517,"description":"UFC 195 Official Weigh-Ins 720p WEB-DL x264 - TX\r\n\r\nVideo\r\nID                                       : 1\r\nFormat                                   : AVC\r\nFormat/Info                              : Advanced Video Codec\r\nFormat profile                           :   \r\nFormat settings, CABAC                   : Yes\r\nFormat settings, ReFrames                : 1 frame\r\nCodec ID                                 : avc1\r\nCodec ID/Info                            : Advanced Video Coding\r\nDuration                                 : 32mn 42s\r\nBit rate                                 : 2 330 Kbps\r\nMaximum bit rate                         : 6 493 Kbps\r\nWidth                                    : 1 280 pixels\r\nHeight                                   : 720 pixels\r\nDisplay aspect ratio                     : 16:9\r\nFrame rate mode                          : Constant\r\nFrame rate                               : 30.000 fps\r\nColor space                              : YUV\r\nChroma subsampling                       : 4:2:0\r\nBit depth                                : 8 bits\r\nScan type                                : Progressive\r\nBits/(Pixel*Frame)                       : 0.084\r\nStream size                              : 545 MiB (92%)\r\n\r\nAudio\r\nID                                       : 2\r\nFormat                                   : AAC\r\nFormat/Info                              : Advanced Audio Codec\r\nFormat profile                           : LC\r\nCodec ID                                 : 40\r\nDuration                                 : 32mn 42s\r\nBit rate mode                            : Variable\r\nBit rate                                 : 192 Kbps\r\nMaximum bit rate                         : 201 Kbps\r\nChannel(s)                               : 2 channels\r\nChannel positions                        : Front: L R\r\nSampling rate                            : 44.1 KHz\r\nCompression mode                         : Lossy\r\nStream size                              : 44.9 MiB (8%)\r\n\r\n\r\nThumb sheet:\r\n \nhttp://extraimago.com/image/FkG","torrent":{"xt":"urn:btih:0c6fb81993b359c601adc225eaa46801d082007c","amp;dn":"UFC+195+Official+Weigh-Ins+720p+WEB-DL+x264+-+TX+-%3D%7BSPARROW%7D%3D-","amp;tr":["udp%3A%2F%2Ftracker.leechers-paradise.org%3A6969","udp%3A%2F%2Fzer0day.ch%3A1337","udp%3A%2F%2Fopen.demonii.com%3A1337","udp%3A%2F%2Ftracker.coppersurfer.tk%3A6969","udp%3A%2F%2Fexodus.desync.com%3A6969"],"infoHash":"0c6fb81993b359c601adc225eaa46801d082007c","infoHashBuffer":{"type":"Buffer","data":[12,111,184,25,147,179,89,198,1,173,194,37,234,164,104,1,208,130,0,124]},"announce":[],"urlList":[]}}